<svg width="8" height="14" viewBox="0 0 8 14" fill="none" xmlns="http://www.w3.org/2000/svg">
<path d="M0.515328 1.45802C0.455183 1.39438 0.408163 1.31951 0.376953 1.23769C0.345743 1.15587 0.330953 1.0687 0.333429 0.981167C0.335906 0.893633 0.355599 0.807443 0.391385 0.727519C0.42717 0.647595 0.478348 0.575502 0.541995 0.515357C0.605642 0.455212 0.680513 0.408191 0.762333 0.376981C0.844152 0.345771 0.931317 0.330981 1.01885 0.333458C1.10639 0.335934 1.19258 0.355627 1.2725 0.391413C1.35242 0.427199 1.42452 0.478376 1.48466 0.542024L7.15133 6.54202C7.26835 6.6658 7.33356 6.82968 7.33356 7.00002C7.33356 7.17036 7.26835 7.33424 7.15133 7.45802L1.48466 13.4587C1.42491 13.5237 1.35284 13.5763 1.27262 13.6132C1.1924 13.6502 1.10564 13.6708 1.01738 13.6739C0.929115 13.6771 0.841109 13.6626 0.758471 13.6315C0.675833 13.6003 0.600211 13.553 0.535997 13.4924C0.471784 13.4318 0.420258 13.359 0.384414 13.2782C0.34857 13.1975 0.329122 13.1105 0.327199 13.0222C0.325275 12.9339 0.340916 12.8461 0.373212 12.7639C0.405508 12.6817 0.453815 12.6067 0.515328 12.5434L5.75 7.00002L0.515328 1.45802Z" fill="black"/>
</svg>
