<svg width="8" height="14" viewBox="0 0 8 14" fill="none" xmlns="http://www.w3.org/2000/svg">
<path d="M7.48467 12.542C7.54482 12.6056 7.59184 12.6805 7.62305 12.7623C7.65426 12.8441 7.66905 12.9313 7.66657 13.0188C7.66409 13.1064 7.6444 13.1926 7.60862 13.2725C7.57283 13.3524 7.52165 13.4245 7.458 13.4846C7.39436 13.5448 7.31949 13.5918 7.23767 13.623C7.15585 13.6542 7.06868 13.669 6.98115 13.6665C6.89361 13.6641 6.80742 13.6444 6.7275 13.6086C6.64758 13.5728 6.57548 13.5216 6.51534 13.458L0.848671 7.45798C0.731647 7.3342 0.666443 7.17032 0.666443 6.99998C0.666443 6.82964 0.731647 6.66576 0.848671 6.54198L6.51534 0.54131C6.57509 0.47627 6.64716 0.423748 6.72738 0.386798C6.8076 0.349849 6.89436 0.329206 6.98262 0.326071C7.07088 0.322935 7.15889 0.337369 7.24153 0.368532C7.32417 0.399696 7.39979 0.446968 7.464 0.507605C7.52822 0.568241 7.57974 0.641032 7.61559 0.72175C7.65143 0.802468 7.67088 0.889504 7.6728 0.977801C7.67472 1.0661 7.65908 1.1539 7.62679 1.2361C7.59449 1.3183 7.54618 1.39327 7.48467 1.45664L2.25 6.99998L7.48467 12.542Z" fill="black"/>
</svg>
