<svg width="18" height="18" viewBox="0 0 18 18" fill="none" xmlns="http://www.w3.org/2000/svg">
<path d="M17.7326 3.70281C17.1064 3.98031 16.4336 4.16781 15.7264 4.25256C16.4561 3.8159 17.0021 3.12866 17.2624 2.31906C16.5768 2.7263 15.8264 3.01295 15.0439 3.16656C14.5177 2.60471 13.8207 2.2323 13.0611 2.10716C12.3016 1.98202 11.5219 2.11115 10.8433 2.4745C10.1647 2.83784 9.62496 3.41508 9.30799 4.11659C8.99102 4.81809 8.91453 5.60462 9.09037 6.35406C7.70114 6.28431 6.3421 5.92322 5.10144 5.29424C3.86079 4.66525 2.76626 3.78243 1.88887 2.70306C1.58887 3.22056 1.41638 3.82056 1.41638 4.45956C1.41604 5.0348 1.5577 5.60124 1.82878 6.10861C2.09987 6.61598 2.492 7.04859 2.97038 7.36806C2.41558 7.35041 1.87303 7.2005 1.38788 6.93081V6.97581C1.38782 7.78261 1.6669 8.56459 2.17776 9.18906C2.68862 9.81352 3.3998 10.242 4.19063 10.4018C3.67596 10.5411 3.13638 10.5616 2.61263 10.4618C2.83575 11.156 3.27037 11.7631 3.85565 12.198C4.44093 12.6329 5.14756 12.8739 5.87663 12.8873C4.639 13.8589 3.11054 14.3859 1.53712 14.3836C1.25841 14.3836 0.979932 14.3674 0.703125 14.3348C2.30023 15.3617 4.15938 15.9067 6.05813 15.9046C12.4856 15.9046 15.9994 10.5811 15.9994 5.96406C15.9994 5.81406 15.9956 5.66256 15.9889 5.51256C16.6723 5.01829 17.2623 4.40623 17.7311 3.70506L17.7326 3.70281Z" fill="black" fill-opacity="0.8"/>
</svg>
